<svg width="981" height="980" viewBox="0 0 981 980" fill="none" xmlns="http://www.w3.org/2000/svg">
<rect width="980" height="980" transform="translate(0.711914)" fill="black"/>
<path d="M741.413 424.636V269.268C741.413 252.595 727.887 239.305 711.463 239.305H556.167C531.774 239.305 507.622 244.138 485.161 253.32C462.699 262.743 442.17 276.275 425.023 293.672L423.815 294.88C401.112 317.835 384.93 346.348 376.719 377.759C391.451 373.893 406.666 371.96 421.882 371.719C462.457 371.235 502.308 384.284 534.672 408.688C563.896 430.435 586.115 460.397 598.191 494.95C610.75 529.987 612.199 568.164 602.78 604.167C633.936 595.952 662.677 579.763 685.621 557.049L686.829 555.841C703.977 538.686 717.743 518.147 727.162 495.675C736.581 473.204 741.171 449.041 741.171 424.636H741.413Z" fill="#18E299"/>
<path d="M372.082 422.012C372.323 374.349 391.331 328.612 424.775 294.43L295.568 423.696C295.086 424.178 294.605 424.419 294.124 424.9C262.604 456.194 243.596 498.079 240.468 542.372C237.581 583.775 248.408 624.698 271.507 658.88C273.71 662.14 279.688 663.213 283.057 660.083L362.217 581.127C387 556.333 394.699 519.503 382.909 486.524C375.451 466.063 371.841 444.158 372.082 422.012Z" fill="#0C8C5E"/>
<path d="M686.078 555.852C661.295 580.165 630.256 597.015 596.571 604.478C562.645 611.94 527.516 609.774 494.793 598.219C494.793 598.219 494.552 598.219 494.312 598.219C461.348 586.424 424.536 594.127 399.753 618.68L320.592 697.636C317.223 701.007 317.704 706.543 321.795 709.191C355.961 732.059 396.866 743.132 438.25 740.244C482.522 737.114 524.147 718.097 555.667 686.563L556.87 685.36L686.078 556.093V555.852Z" fill="#0C8C5E"/>
</svg>
